{"title":"Astro.Boy.2009.720p.BRRip.XviD.AC3-Rx","uid":6732489,"size":2521598458,"categoryP":"video","categoryS":"hd___movies","magnet":"?xt=urn:btih:097beaaaafda9f84dc9243b57edb55b45b6b924c&amp;dn=Astro.Boy.2009.720p.BRRip.XviD.AC3-Rx&amp;tr=udp%3A%2F%2Ftracker.openbittorrent.com%3A80&amp;tr=udp%3A%2F%2Fopen.demonii.com%3A1337&amp;tr=udp%3A%2F%2Ftracker.coppersurfer.tk%3A6969&amp;tr=udp%3A%2F%2Fexodus.desync.com%3A6969","seeders":0,"leechers":1,"uploader":"arsalankhan1","files":-1,"time":1318208849,"description":"General\nComplete name                    : E:\\\\\\\\Entertainment\\\\\\\\My Movies\\\\\\\\Astro.Boy.2009.720p.BRRip.XviD.AC3-Rx [NO-RAR]\\\\\\\\Astro.Boy.2009.720p.BRRip.avi\nFormat                           : AVI\nFormat/Info                      : Audio Video Interleave\nFormat profile                   : OpenDML\nFile size                        : 2.35 GiB\nDuration                         : 1h 33mn\nOverall bit rate                 : 3 583 Kbps\nWriting application              : VirtualDubMod 1.5.10.2 (build 2540/release)\nWriting library                  : VirtualDubMod build 2540/release\n\nVideo\nID                               : 0\nFormat                           : MPEG-4 Visual\nFormat profile                   : Advanced Simple@L5\nFormat settings, BVOP            : 2\nFormat settings, QPel            : No\nFormat settings, GMC             : No warppoints\nFormat settings, Matrix          : Default (H.263)\nMuxing mode                      : Packed bitstream\nCodec ID                         : XVID\nCodec ID/Hint                    : XviD\nDuration                         : 1h 33mn\nBit rate                         : 3 123 Kbps\nWidth                            : 1 280 pixels\nHeight                           : 544 pixels\nDisplay aspect ratio             : 2.35:1\nFrame rate                       : 23.976 fps\nColor space                      : YUV\nChroma subsampling               : 4:2:0\nBit depth                        : 8 bits\nScan type                        : Progressive\nCompression mode                 : Lossy\nBits/(Pixel*Frame)               : 0.187\nStream size                      : 2.05 GiB (87%)\nWriting library                  : XviD 1.2.1 (UTC 2008-12-04)\n\nAudio\nID                               : 1\nFormat                           : AC-3\nFormat/Info                      : Audio Coding 3\nMode extension                   : CM (complete main)\nCodec ID                         : 2000\nDuration                         : 1h 33mn\nBit rate mode                    : Constant\nBit rate                         : 448 Kbps\nChannel(s)                       : 6 channels\nChannel positions                : Front: L C R, Side: L R, LFE\nSampling rate                    : 48.0 KHz\nBit depth                        : 16 bits\nCompression mode                 : Lossy\nStream size                      : 301 MiB (13%)\nAlignment                        : Split accross interleaves\nInterleave, duration             : 42 ms (1.00 video frame)\nInterleave, preload duration     : 500 ms\n\n\nSEED PLEASE :)","torrent":{"xt":"urn:btih:097beaaaafda9f84dc9243b57edb55b45b6b924c","amp;dn":"Astro.Boy.2009.720p.BRRip.XviD.AC3-Rx","amp;tr":["udp%3A%2F%2Ftracker.openbittorrent.com%3A80","udp%3A%2F%2Fopen.demonii.com%3A1337","udp%3A%2F%2Ftracker.coppersurfer.tk%3A6969","udp%3A%2F%2Fexodus.desync.com%3A6969"],"infoHash":"097beaaaafda9f84dc9243b57edb55b45b6b924c","infoHashBuffer":{"type":"Buffer","data":[9,123,234,170,175,218,159,132,220,146,67,181,126,219,85,180,91,107,146,76]},"announce":[],"urlList":[]}}